<mxfile host="app.diagrams.net" modified="2024-03-17T19:17:09.139Z" agent="Mozilla/5.0 (Macintosh; Intel Mac OS X 10.15; rv:123.0) Gecko/20100101 Firefox/123.0" etag="eK9UfAw4B9Ztkwmb0rJR" version="24.0.7" type="github">
  <diagram name="Page-1" id="1sVsvAT_UA8klSTaUw1X">
    <mxGraphModel dx="1242" dy="735" grid="1" gridSize="10" guides="1" tooltips="1" connect="1" arrows="1" fold="1" page="1" pageScale="1" pageWidth="850" pageHeight="1100" math="0" shadow="0">
      <root>
        <mxCell id="0" />
        <mxCell id="1" parent="0" />
        <mxCell id="8M6OefNHULhqHlCTk1Nq-1" value="Clients" style="rounded=0;whiteSpace=wrap;html=1;" vertex="1" parent="1">
          <mxGeometry x="80" y="120" width="120" height="60" as="geometry" />
        </mxCell>
        <mxCell id="8M6OefNHULhqHlCTk1Nq-2" value="&lt;div&gt;Load Balancer&lt;/div&gt;&lt;div&gt;- Rate Limiting&lt;/div&gt;&lt;div&gt;- Authentication&lt;br&gt;&lt;/div&gt;" style="rounded=0;whiteSpace=wrap;html=1;" vertex="1" parent="1">
          <mxGeometry x="300" y="80" width="180" height="140" as="geometry" />
        </mxCell>
        <mxCell id="8M6OefNHULhqHlCTk1Nq-4" value="" style="rounded=0;whiteSpace=wrap;html=1;" vertex="1" parent="1">
          <mxGeometry x="160" y="360" width="240" height="120" as="geometry" />
        </mxCell>
        <mxCell id="8M6OefNHULhqHlCTk1Nq-5" value="Clean Up Service" style="rounded=0;whiteSpace=wrap;html=1;" vertex="1" parent="1">
          <mxGeometry x="530" y="470" width="190" height="70" as="geometry" />
        </mxCell>
        <mxCell id="8M6OefNHULhqHlCTk1Nq-6" value="" style="endArrow=classic;html=1;rounded=0;entryX=0.5;entryY=0;entryDx=0;entryDy=0;" edge="1" parent="1" target="8M6OefNHULhqHlCTk1Nq-4">
          <mxGeometry width="50" height="50" relative="1" as="geometry">
            <mxPoint x="390" y="220" as="sourcePoint" />
            <mxPoint x="270" y="380" as="targetPoint" />
          </mxGeometry>
        </mxCell>
        <mxCell id="8M6OefNHULhqHlCTk1Nq-7" value="" style="endArrow=classic;html=1;rounded=0;entryX=0;entryY=0.5;entryDx=0;entryDy=0;" edge="1" parent="1" target="8M6OefNHULhqHlCTk1Nq-2">
          <mxGeometry width="50" height="50" relative="1" as="geometry">
            <mxPoint x="200" y="149.5" as="sourcePoint" />
            <mxPoint x="290" y="149.5" as="targetPoint" />
          </mxGeometry>
        </mxCell>
        <mxCell id="8M6OefNHULhqHlCTk1Nq-8" value="" style="rounded=0;whiteSpace=wrap;html=1;" vertex="1" parent="1">
          <mxGeometry x="170" y="370" width="60" height="100" as="geometry" />
        </mxCell>
        <mxCell id="8M6OefNHULhqHlCTk1Nq-9" value="" style="rounded=0;whiteSpace=wrap;html=1;" vertex="1" parent="1">
          <mxGeometry x="330" y="370" width="60" height="100" as="geometry" />
        </mxCell>
        <mxCell id="8M6OefNHULhqHlCTk1Nq-10" value="&lt;font style=&quot;font-size: 30px;&quot;&gt;...&lt;/font&gt;" style="text;html=1;align=center;verticalAlign=middle;whiteSpace=wrap;rounded=0;" vertex="1" parent="1">
          <mxGeometry x="250" y="405" width="60" height="30" as="geometry" />
        </mxCell>
        <mxCell id="8M6OefNHULhqHlCTk1Nq-11" value="Web Servers" style="text;html=1;align=center;verticalAlign=middle;whiteSpace=wrap;rounded=0;" vertex="1" parent="1">
          <mxGeometry x="90" y="405" width="60" height="30" as="geometry" />
        </mxCell>
        <mxCell id="8M6OefNHULhqHlCTk1Nq-12" value="Cache" style="shape=cylinder3;whiteSpace=wrap;html=1;boundedLbl=1;backgroundOutline=1;size=15;" vertex="1" parent="1">
          <mxGeometry x="250" y="600" width="80" height="110" as="geometry" />
        </mxCell>
        <mxCell id="8M6OefNHULhqHlCTk1Nq-13" value="Metadata DB" style="shape=cylinder3;whiteSpace=wrap;html=1;boundedLbl=1;backgroundOutline=1;size=15;" vertex="1" parent="1">
          <mxGeometry x="410" y="600" width="80" height="110" as="geometry" />
        </mxCell>
        <mxCell id="8M6OefNHULhqHlCTk1Nq-14" value="BLOB / Object Store" style="shape=cylinder3;whiteSpace=wrap;html=1;boundedLbl=1;backgroundOutline=1;size=15;" vertex="1" parent="1">
          <mxGeometry x="570" y="600" width="80" height="110" as="geometry" />
        </mxCell>
        <mxCell id="8M6OefNHULhqHlCTk1Nq-15" value="Unique ID Generator Service" style="rounded=0;whiteSpace=wrap;html=1;" vertex="1" parent="1">
          <mxGeometry x="530" y="330" width="190" height="70" as="geometry" />
        </mxCell>
        <mxCell id="8M6OefNHULhqHlCTk1Nq-16" value="" style="endArrow=classic;html=1;rounded=0;exitX=0.5;exitY=0;exitDx=0;exitDy=0;" edge="1" parent="1" source="8M6OefNHULhqHlCTk1Nq-9">
          <mxGeometry width="50" height="50" relative="1" as="geometry">
            <mxPoint x="480" y="410" as="sourcePoint" />
            <mxPoint x="530" y="360" as="targetPoint" />
            <Array as="points">
              <mxPoint x="440" y="320" />
            </Array>
          </mxGeometry>
        </mxCell>
        <mxCell id="8M6OefNHULhqHlCTk1Nq-17" value="" style="endArrow=classic;html=1;rounded=0;entryX=0.5;entryY=0;entryDx=0;entryDy=0;entryPerimeter=0;" edge="1" parent="1" target="8M6OefNHULhqHlCTk1Nq-12">
          <mxGeometry width="50" height="50" relative="1" as="geometry">
            <mxPoint x="270" y="480" as="sourcePoint" />
            <mxPoint x="310" y="550" as="targetPoint" />
          </mxGeometry>
        </mxCell>
        <mxCell id="8M6OefNHULhqHlCTk1Nq-18" value="" style="endArrow=classic;html=1;rounded=0;entryX=0.5;entryY=0;entryDx=0;entryDy=0;entryPerimeter=0;" edge="1" parent="1" target="8M6OefNHULhqHlCTk1Nq-13">
          <mxGeometry width="50" height="50" relative="1" as="geometry">
            <mxPoint x="270" y="480" as="sourcePoint" />
            <mxPoint x="330" y="580" as="targetPoint" />
          </mxGeometry>
        </mxCell>
        <mxCell id="8M6OefNHULhqHlCTk1Nq-19" value="" style="endArrow=classic;html=1;rounded=0;entryX=0.5;entryY=0;entryDx=0;entryDy=0;entryPerimeter=0;" edge="1" parent="1" target="8M6OefNHULhqHlCTk1Nq-14">
          <mxGeometry width="50" height="50" relative="1" as="geometry">
            <mxPoint x="270" y="480" as="sourcePoint" />
            <mxPoint x="360" y="580" as="targetPoint" />
          </mxGeometry>
        </mxCell>
        <mxCell id="8M6OefNHULhqHlCTk1Nq-20" value="" style="endArrow=classic;html=1;rounded=0;entryX=0.5;entryY=0;entryDx=0;entryDy=0;entryPerimeter=0;" edge="1" parent="1" target="8M6OefNHULhqHlCTk1Nq-12">
          <mxGeometry width="50" height="50" relative="1" as="geometry">
            <mxPoint x="630" y="540" as="sourcePoint" />
            <mxPoint x="550" y="660" as="targetPoint" />
          </mxGeometry>
        </mxCell>
        <mxCell id="8M6OefNHULhqHlCTk1Nq-21" value="" style="endArrow=classic;html=1;rounded=0;entryX=0.5;entryY=0;entryDx=0;entryDy=0;entryPerimeter=0;" edge="1" parent="1" target="8M6OefNHULhqHlCTk1Nq-13">
          <mxGeometry width="50" height="50" relative="1" as="geometry">
            <mxPoint x="630" y="540" as="sourcePoint" />
            <mxPoint x="300" y="610" as="targetPoint" />
          </mxGeometry>
        </mxCell>
        <mxCell id="8M6OefNHULhqHlCTk1Nq-22" value="" style="endArrow=classic;html=1;rounded=0;exitX=0.537;exitY=0.971;exitDx=0;exitDy=0;exitPerimeter=0;" edge="1" parent="1" source="8M6OefNHULhqHlCTk1Nq-5">
          <mxGeometry width="50" height="50" relative="1" as="geometry">
            <mxPoint x="630" y="550" as="sourcePoint" />
            <mxPoint x="610" y="600" as="targetPoint" />
          </mxGeometry>
        </mxCell>
      </root>
    </mxGraphModel>
  </diagram>
</mxfile>
